<svg width="24" height="24" viewBox="0 0 24 24" fill="none" xmlns="http://www.w3.org/2000/svg">
<path fill-rule="evenodd" clip-rule="evenodd" d="M17.986 5.42403C14.0077 4.98029 9.99237 4.98029 6.01404 5.42403C5.95305 5.43102 5.89505 5.45425 5.8461 5.4913C5.79715 5.52835 5.75904 5.57786 5.73575 5.63466C5.71246 5.69146 5.70484 5.75347 5.71368 5.81422C5.72253 5.87497 5.74751 5.93223 5.78604 5.98003L9.30304 10.328C10.5628 11.8854 11.2501 13.8279 11.25 15.831V18.72L12.75 19.82V15.83C12.7502 13.8273 13.4375 11.8852 14.697 10.328L18.214 5.98003C18.2526 5.93223 18.2775 5.87497 18.2864 5.81422C18.2952 5.75347 18.2876 5.69146 18.2643 5.63466C18.241 5.57786 18.2029 5.52835 18.154 5.4913C18.105 5.45425 18.047 5.43102 17.986 5.42403ZM5.84804 3.93303C9.93698 3.4761 14.0641 3.4761 18.153 3.93303C19.599 4.09503 20.296 5.79103 19.381 6.92303L15.864 11.271C14.8199 12.5614 14.2501 14.1711 14.25 15.831V21.3C14.2501 21.4387 14.2118 21.5747 14.1392 21.6929C14.0667 21.8111 13.9627 21.9069 13.839 21.9696C13.7153 22.0323 13.5766 22.0594 13.4384 22.048C13.3002 22.0366 13.1678 21.9871 13.056 21.905L10.056 19.705C9.96111 19.6353 9.88393 19.5442 9.83077 19.4391C9.77761 19.334 9.74995 19.2178 9.75004 19.1V15.83C9.75004 14.17 9.18004 12.561 8.13704 11.27L4.62004 6.92403C3.70404 5.79203 4.40004 4.09503 5.84804 3.93303Z" fill="black"/>
</svg>
