<svg width="24" height="24" viewBox="0 0 24 24" fill="none" xmlns="http://www.w3.org/2000/svg">
<path d="M12.0001 1.71436C16.0239 1.71436 19.2858 4.71436 19.2858 9.85721C19.2858 11.8989 18.1376 14.4129 16.7529 16.7032L16.5202 17.0825C16.4416 17.2082 16.3629 17.3331 16.2841 17.4571L16.0449 17.8261L15.9249 18.0082L15.6845 18.3678L15.4432 18.7192L15.2032 19.0634L14.9649 19.3985L14.7292 19.7242L14.4969 20.0392L14.2694 20.3435L14.0469 20.6358L13.7259 21.0515L13.4225 21.4364L13.1396 21.7886L13.0509 21.8984C12.4706 22.5858 11.4965 22.5584 10.9496 21.8984L10.6745 21.5581L10.3779 21.1835L10.1692 20.9165L9.95364 20.6362L9.61807 20.1931L9.38793 19.8832L9.15393 19.5631L8.91693 19.2326L8.67736 18.8932L8.4365 18.5452L8.19564 18.1895C8.11564 18.0695 8.03564 17.9485 7.95564 17.8265L7.7165 17.4579L7.48036 17.0829L7.24764 16.7036C5.8625 14.4129 4.71436 11.8989 4.71436 9.85721C4.71436 4.71436 7.97621 1.71436 12.0001 1.71436ZM12.0001 3.42864C8.7335 3.42864 6.42864 5.86378 6.42864 9.85721C6.42864 11.2908 7.17693 13.2052 8.40436 15.3202L8.61993 15.6845L8.84407 16.0526L9.07721 16.4242L9.19678 16.6111L9.44236 16.9865L9.69607 17.3649L9.9575 17.7455L10.2262 18.1278L10.5022 18.5118L10.6428 18.7046L10.9291 19.0904L11.1884 19.4328L11.3221 19.6064C11.4022 19.7098 11.5049 19.7936 11.6224 19.8512C11.7399 19.9088 11.869 19.9388 11.9999 19.9388C12.1307 19.9388 12.2598 19.9088 12.3773 19.8512C12.4948 19.7936 12.5975 19.7098 12.6776 19.6064L12.9211 19.2892L13.2108 18.9018L13.4941 18.5161L13.7705 18.1316L14.0401 17.7485L14.3015 17.3675C14.3878 17.2409 14.4725 17.1146 14.5556 16.9886L14.8016 16.6128C15.0034 16.3002 15.1959 15.9911 15.3794 15.6854L15.5945 15.3211C16.8236 13.2044 17.5715 11.2899 17.5715 9.85721C17.5715 5.86378 15.2666 3.42864 12.0001 3.42864ZM12.0001 5.5715C12.9094 5.5715 13.7815 5.93272 14.4244 6.5757C15.0674 7.21869 15.4286 8.09076 15.4286 9.00007C15.4286 9.90938 15.0674 10.7815 14.4244 11.4244C13.7815 12.0674 12.9094 12.4286 12.0001 12.4286C11.0908 12.4286 10.2187 12.0674 9.5757 11.4244C8.93272 10.7815 8.5715 9.90938 8.5715 9.00007C8.5715 8.09076 8.93272 7.21869 9.5757 6.5757C10.2187 5.93272 11.0908 5.5715 12.0001 5.5715ZM12.0001 7.28578C11.5454 7.28578 11.1094 7.4664 10.7879 7.78789C10.4664 8.10938 10.2858 8.54541 10.2858 9.00007C10.2858 9.45473 10.4664 9.89076 10.7879 10.2123C11.1094 10.5337 11.5454 10.7144 12.0001 10.7144C12.4547 10.7144 12.8908 10.5337 13.2123 10.2123C13.5337 9.89076 13.7144 9.45473 13.7144 9.00007C13.7144 8.54541 13.5337 8.10938 13.2123 7.78789C12.8908 7.4664 12.4547 7.28578 12.0001 7.28578Z" fill="black"/>
</svg>
